<svg xmlns="http://www.w3.org/2000/svg" width="512" height="512" viewBox="0 0 512 512">
  <defs>
    <linearGradient id="bg" x1="0%" y1="0%" x2="100%" y2="100%">
      <stop offset="0%" style="stop-color:#7c3aed"/>
      <stop offset="100%" style="stop-color:#ec4899"/>
    </linearGradient>
  </defs>
  <rect width="512" height="512" rx="100" fill="url(#bg)"/>
  <g fill="white">
    <!-- Music note icon -->
    <path d="M356 128v196c0 33.1-35.8 60-80 60s-80-26.9-80-60 35.8-60 80-60c15.9 0 30.6 3.5 43 9.4V160l-150 30v174c0 33.1-35.8 60-80 60s-80-26.9-80-60 35.8-60 80-60c15.9 0 30.6 3.5 43 9.4V148l224-44v24z" transform="translate(70, 20) scale(0.85)"/>
  </g>
</svg>
